<svg width="48" height="48" viewBox="0 0 48 48" fill="none" xmlns="http://www.w3.org/2000/svg">
<g clip-path="url(#clip0_1222_46070)">
<path d="M13.5 48C10.297 48 7.947 47.303 6.45 45.907C4.952 44.513 4.202 42.241 4.2 39.094V31.33C4.205 27.865 2.805 26.132 0 26.129V21.869C2.817 21.869 4.226 20.043 4.226 16.39V9.11602C4.226 6.00402 4.987 3.70503 6.51 2.22003C8.032 0.735025 10.363 -0.00497483 13.5 2.51678e-05V4.26403C10.685 4.26403 9.277 5.90003 9.277 9.17303V16.095C9.277 20.267 7.869 22.875 5.051 23.918V24.034C7.866 24.959 9.275 27.509 9.277 31.684V38.58C9.277 40.362 9.599 41.666 10.241 42.491C10.884 43.316 11.97 43.73 13.5 43.733V48ZM34.5 43.732C36.03 43.732 37.115 43.319 37.755 42.492C38.395 41.664 38.716 40.36 38.719 38.58V31.684C38.719 27.511 40.124 24.961 42.934 24.034V23.918C40.121 22.875 38.716 20.268 38.719 16.095V9.17202C38.719 5.90002 37.312 4.26403 34.5 4.26403V2.51678e-05C37.648 2.51678e-05 39.98 0.742025 41.497 2.22803C43.015 3.71203 43.775 6.01102 43.777 9.12402V16.399C43.777 20.051 45.182 21.878 47.992 21.878V26.13C45.182 26.13 43.777 27.864 43.777 31.331V39.101C43.777 42.246 43.027 44.517 41.527 45.915C40.027 47.312 37.685 48.007 34.5 48V43.732Z" fill="#18C1D3"/>
<path d="M27.184 29.928H19.904L18.528 35H14L20.928 12.872H26.304L33.216 35H28.56L27.184 29.928ZM20.688 26.648H26.368L23.536 16.152L20.688 26.648Z" fill="#18C1D3"/>
</g>
<defs>
<clipPath id="clip0_1222_46070">
<rect width="48" height="48" fill="white"/>
</clipPath>
</defs>
</svg>
